<svg width="116" height="117" viewBox="0 0 116 117" fill="none" xmlns="http://www.w3.org/2000/svg">
<path d="M31.6362 0.618652H28.1211V4.1338H31.6362V0.618652Z" fill="#1A1A1A"/>
<path d="M38.6668 0.618652H35.1516V4.1338H38.6668V0.618652Z" fill="#1A1A1A"/>
<path d="M45.697 0.618652H42.1819V4.1338H45.697V0.618652Z" fill="#1A1A1A"/>
<path d="M59.7576 0.618652H56.2424V4.1338H59.7576V0.618652Z" fill="#1A1A1A"/>
<path d="M73.8181 0.618652H70.303V4.1338H73.8181V0.618652Z" fill="#1A1A1A"/>
<path d="M77.3333 0.618652H73.8181V4.1338H77.3333V0.618652Z" fill="#1A1A1A"/>
<path d="M84.3635 0.618652H80.8484V4.1338H84.3635V0.618652Z" fill="#1A1A1A"/>
<path d="M87.8787 0.618652H84.3635V4.1338H87.8787V0.618652Z" fill="#1A1A1A"/>
<path d="M31.6362 4.13379H28.1211V7.64894H31.6362V4.13379Z" fill="#1A1A1A"/>
<path d="M35.1516 4.13379H31.6365V7.64894H35.1516V4.13379Z" fill="#1A1A1A"/>
<path d="M45.697 4.13379H42.1819V7.64894H45.697V4.13379Z" fill="#1A1A1A"/>
<path d="M52.7273 4.13379H49.2122V7.64894H52.7273V4.13379Z" fill="#1A1A1A"/>
<path d="M56.2424 4.13379H52.7273V7.64894H56.2424V4.13379Z" fill="#1A1A1A"/>
<path d="M59.7576 4.13379H56.2424V7.64894H59.7576V4.13379Z" fill="#1A1A1A"/>
<path d="M63.2727 4.13379H59.7576V7.64894H63.2727V4.13379Z" fill="#1A1A1A"/>
<path d="M66.7879 4.13379H63.2727V7.64894H66.7879V4.13379Z" fill="#1A1A1A"/>
<path d="M70.303 4.13379H66.7878V7.64894H70.303V4.13379Z" fill="#1A1A1A"/>
<path d="M87.8787 4.13379H84.3635V7.64894H87.8787V4.13379Z" fill="#1A1A1A"/>
<path d="M31.6362 7.64893H28.1211V11.1641H31.6362V7.64893Z" fill="#1A1A1A"/>
<path d="M35.1516 7.64893H31.6365V11.1641H35.1516V7.64893Z" fill="#1A1A1A"/>
<path d="M42.1819 7.64893H38.6667V11.1641H42.1819V7.64893Z" fill="#1A1A1A"/>
<path d="M45.697 7.64893H42.1819V11.1641H45.697V7.64893Z" fill="#1A1A1A"/>
<path d="M49.2122 7.64893H45.697V11.1641H49.2122V7.64893Z" fill="#1A1A1A"/>
<path d="M52.7273 7.64893H49.2122V11.1641H52.7273V7.64893Z" fill="#1A1A1A"/>
<path d="M56.2424 7.64893H52.7273V11.1641H56.2424V7.64893Z" fill="#1A1A1A"/>
<path d="M66.7879 7.64893H63.2727V11.1641H66.7879V7.64893Z" fill="#1A1A1A"/>
<path d="M73.8181 7.64893H70.303V11.1641H73.8181V7.64893Z" fill="#1A1A1A"/>
<path d="M77.3333 7.64893H73.8181V11.1641H77.3333V7.64893Z" fill="#1A1A1A"/>
<path d="M80.8484 7.64893H77.3333V11.1641H80.8484V7.64893Z" fill="#1A1A1A"/>
<path d="M84.3635 7.64893H80.8484V11.1641H84.3635V7.64893Z" fill="#1A1A1A"/>
<path d="M87.8787 7.64893H84.3635V11.1641H87.8787V7.64893Z" fill="#1A1A1A"/>
<path d="M38.6668 11.1641H35.1516V14.6792H38.6668V11.1641Z" fill="#1A1A1A"/>
<path d="M49.2122 11.1641H45.697V14.6792H49.2122V11.1641Z" fill="#1A1A1A"/>
<path d="M52.7273 11.1641H49.2122V14.6792H52.7273V11.1641Z" fill="#1A1A1A"/>
<path d="M56.2424 11.1641H52.7273V14.6792H56.2424V11.1641Z" fill="#1A1A1A"/>
<path d="M63.2727 11.1641H59.7576V14.6792H63.2727V11.1641Z" fill="#1A1A1A"/>
<path d="M66.7879 11.1641H63.2727V14.6792H66.7879V11.1641Z" fill="#1A1A1A"/>
<path d="M73.8181 11.1641H70.303V14.6792H73.8181V11.1641Z" fill="#1A1A1A"/>
<path d="M84.3635 11.1641H80.8484V14.6792H84.3635V11.1641Z" fill="#1A1A1A"/>
<path d="M38.6668 14.6792H35.1516V18.1944H38.6668V14.6792Z" fill="#1A1A1A"/>
<path d="M42.1819 14.6792H38.6667V18.1944H42.1819V14.6792Z" fill="#1A1A1A"/>
<path d="M45.697 14.6792H42.1819V18.1944H45.697V14.6792Z" fill="#1A1A1A"/>
<path d="M52.7273 14.6792H49.2122V18.1944H52.7273V14.6792Z" fill="#1A1A1A"/>
<path d="M63.2727 14.6792H59.7576V18.1944H63.2727V14.6792Z" fill="#1A1A1A"/>
<path d="M66.7879 14.6792H63.2727V18.1944H66.7879V14.6792Z" fill="#1A1A1A"/>
<path d="M87.8787 14.6792H84.3635V18.1944H87.8787V14.6792Z" fill="#1A1A1A"/>
<path d="M42.1819 18.1943H38.6667V21.7095H42.1819V18.1943Z" fill="#1A1A1A"/>
<path d="M45.697 18.1943H42.1819V21.7095H45.697V18.1943Z" fill="#1A1A1A"/>
<path d="M49.2122 18.1943H45.697V21.7095H49.2122V18.1943Z" fill="#1A1A1A"/>
<path d="M63.2727 18.1943H59.7576V21.7095H63.2727V18.1943Z" fill="#1A1A1A"/>
<path d="M66.7879 18.1943H63.2727V21.7095H66.7879V18.1943Z" fill="#1A1A1A"/>
<path d="M42.1819 25.2246H38.6667V28.7398H42.1819V25.2246Z" fill="#1A1A1A"/>
<path d="M49.2122 25.2246H45.697V28.7398H49.2122V25.2246Z" fill="#1A1A1A"/>
<path d="M52.7273 25.2246H49.2122V28.7398H52.7273V25.2246Z" fill="#1A1A1A"/>
<path d="M59.7576 25.2246H56.2424V28.7398H59.7576V25.2246Z" fill="#1A1A1A"/>
<path d="M70.303 25.2246H66.7878V28.7398H70.303V25.2246Z" fill="#1A1A1A"/>
<path d="M73.8181 25.2246H70.303V28.7398H73.8181V25.2246Z" fill="#1A1A1A"/>
<path d="M77.3333 25.2246H73.8181V28.7398H77.3333V25.2246Z" fill="#1A1A1A"/>
<path d="M80.8484 25.2246H77.3333V28.7398H80.8484V25.2246Z" fill="#1A1A1A"/>
<path d="M87.8787 25.2246H84.3635V28.7398H87.8787V25.2246Z" fill="#1A1A1A"/>
<path d="M10.5454 28.7397H7.03027V32.2549H10.5454V28.7397Z" fill="#1A1A1A"/>
<path d="M14.0606 28.7397H10.5454V32.2549H14.0606V28.7397Z" fill="#1A1A1A"/>
<path d="M35.1516 28.7397H31.6365V32.2549H35.1516V28.7397Z" fill="#1A1A1A"/>
<path d="M38.6668 28.7397H35.1516V32.2549H38.6668V28.7397Z" fill="#1A1A1A"/>
<path d="M42.1819 28.7397H38.6667V32.2549H42.1819V28.7397Z" fill="#1A1A1A"/>
<path d="M45.697 28.7397H42.1819V32.2549H45.697V28.7397Z" fill="#1A1A1A"/>
<path d="M49.2122 28.7397H45.697V32.2549H49.2122V28.7397Z" fill="#1A1A1A"/>
<path d="M56.2424 28.7397H52.7273V32.2549H56.2424V28.7397Z" fill="#1A1A1A"/>
<path d="M59.7576 28.7397H56.2424V32.2549H59.7576V28.7397Z" fill="#1A1A1A"/>
<path d="M70.303 28.7397H66.7878V32.2549H70.303V28.7397Z" fill="#1A1A1A"/>
<path d="M87.8787 28.7397H84.3635V32.2549H87.8787V28.7397Z" fill="#1A1A1A"/>
<path d="M91.3941 28.7397H87.8789V32.2549H91.3941V28.7397Z" fill="#1A1A1A"/>
<path d="M94.9092 28.7397H91.394V32.2549H94.9092V28.7397Z" fill="#1A1A1A"/>
<path d="M98.4243 28.7397H94.9092V32.2549H98.4243V28.7397Z" fill="#1A1A1A"/>
<path d="M108.97 28.7397H105.455V32.2549H108.97V28.7397Z" fill="#1A1A1A"/>
<path d="M112.485 28.7397H108.97V32.2549H112.485V28.7397Z" fill="#1A1A1A"/>
<path d="M116 28.7397H112.485V32.2549H116V28.7397Z" fill="#1A1A1A"/>
<path d="M10.5454 32.2551H7.03027V35.7703H10.5454V32.2551Z" fill="#1A1A1A"/>
<path d="M14.0606 32.2551H10.5454V35.7703H14.0606V32.2551Z" fill="#1A1A1A"/>
<path d="M17.5757 32.2551H14.0605V35.7703H17.5757V32.2551Z" fill="#1A1A1A"/>
<path d="M21.0908 32.2551H17.5757V35.7703H21.0908V32.2551Z" fill="#1A1A1A"/>
<path d="M49.2122 32.2551H45.697V35.7703H49.2122V32.2551Z" fill="#1A1A1A"/>
<path d="M52.7273 32.2551H49.2122V35.7703H52.7273V32.2551Z" fill="#1A1A1A"/>
<path d="M66.7879 32.2551H63.2727V35.7703H66.7879V32.2551Z" fill="#1A1A1A"/>
<path d="M73.8181 32.2551H70.303V35.7703H73.8181V32.2551Z" fill="#1A1A1A"/>
<path d="M80.8484 32.2551H77.3333V35.7703H80.8484V32.2551Z" fill="#1A1A1A"/>
<path d="M84.3635 32.2551H80.8484V35.7703H84.3635V32.2551Z" fill="#1A1A1A"/>
<path d="M91.3941 32.2551H87.8789V35.7703H91.3941V32.2551Z" fill="#1A1A1A"/>
<path d="M94.9092 32.2551H91.394V35.7703H94.9092V32.2551Z" fill="#1A1A1A"/>
<path d="M108.97 32.2551H105.455V35.7703H108.97V32.2551Z" fill="#1A1A1A"/>
<path d="M112.485 32.2551H108.97V35.7703H112.485V32.2551Z" fill="#1A1A1A"/>
<path d="M116 32.2551H112.485V35.7703H116V32.2551Z" fill="#1A1A1A"/>
<path d="M7.03029 35.7703H3.51514V39.2854H7.03029V35.7703Z" fill="#1A1A1A"/>
<path d="M14.0606 35.7703H10.5454V39.2854H14.0606V35.7703Z" fill="#1A1A1A"/>
<path d="M21.0908 35.7703H17.5757V39.2854H21.0908V35.7703Z" fill="#1A1A1A"/>
<path d="M28.1211 35.7703H24.606V39.2854H28.1211V35.7703Z" fill="#1A1A1A"/>
<path d="M31.6362 35.7703H28.1211V39.2854H31.6362V35.7703Z" fill="#1A1A1A"/>
<path d="M38.6668 35.7703H35.1516V39.2854H38.6668V35.7703Z" fill="#1A1A1A"/>
<path d="M45.697 35.7703H42.1819V39.2854H45.697V35.7703Z" fill="#1A1A1A"/>
<path d="M52.7273 35.7703H49.2122V39.2854H52.7273V35.7703Z" fill="#1A1A1A"/>
<path d="M56.2424 35.7703H52.7273V39.2854H56.2424V35.7703Z" fill="#1A1A1A"/>
<path d="M59.7576 35.7703H56.2424V39.2854H59.7576V35.7703Z" fill="#1A1A1A"/>
<path d="M66.7879 35.7703H63.2727V39.2854H66.7879V35.7703Z" fill="#1A1A1A"/>
<path d="M70.303 35.7703H66.7878V39.2854H70.303V35.7703Z" fill="#1A1A1A"/>
<path d="M80.8484 35.7703H77.3333V39.2854H80.8484V35.7703Z" fill="#1A1A1A"/>
<path d="M91.3941 35.7703H87.8789V39.2854H91.3941V35.7703Z" fill="#1A1A1A"/>
<path d="M94.9092 35.7703H91.394V39.2854H94.9092V35.7703Z" fill="#1A1A1A"/>
<path d="M98.4243 35.7703H94.9092V39.2854H98.4243V35.7703Z" fill="#1A1A1A"/>
<path d="M112.485 35.7703H108.97V39.2854H112.485V35.7703Z" fill="#1A1A1A"/>
<path d="M14.0606 39.2854H10.5454V42.8006H14.0606V39.2854Z" fill="#1A1A1A"/>
<path d="M17.5757 39.2854H14.0605V42.8006H17.5757V39.2854Z" fill="#1A1A1A"/>
<path d="M28.1211 39.2854H24.606V42.8006H28.1211V39.2854Z" fill="#1A1A1A"/>
<path d="M38.6668 39.2854H35.1516V42.8006H38.6668V39.2854Z" fill="#1A1A1A"/>
<path d="M42.1819 39.2854H38.6667V42.8006H42.1819V39.2854Z" fill="#1A1A1A"/>
<path d="M52.7273 39.2854H49.2122V42.8006H52.7273V39.2854Z" fill="#1A1A1A"/>
<path d="M59.7576 39.2854H56.2424V42.8006H59.7576V39.2854Z" fill="#1A1A1A"/>
<path d="M70.303 39.2854H66.7878V42.8006H70.303V39.2854Z" fill="#1A1A1A"/>
<path d="M73.8181 39.2854H70.303V42.8006H73.8181V39.2854Z" fill="#1A1A1A"/>
<path d="M87.8787 39.2854H84.3635V42.8006H87.8787V39.2854Z" fill="#1A1A1A"/>
<path d="M91.3941 39.2854H87.8789V42.8006H91.3941V39.2854Z" fill="#1A1A1A"/>
<path d="M94.9092 39.2854H91.394V42.8006H94.9092V39.2854Z" fill="#1A1A1A"/>
<path d="M105.455 39.2854H101.939V42.8006H105.455V39.2854Z" fill="#1A1A1A"/>
<path d="M108.97 39.2854H105.455V42.8006H108.97V39.2854Z" fill="#1A1A1A"/>
<path d="M112.485 39.2854H108.97V42.8006H112.485V39.2854Z" fill="#1A1A1A"/>
<path d="M7.03029 42.8005H3.51514V46.3157H7.03029V42.8005Z" fill="#1A1A1A"/>
<path d="M28.1211 42.8005H24.606V46.3157H28.1211V42.8005Z" fill="#1A1A1A"/>
<path d="M38.6668 42.8005H35.1516V46.3157H38.6668V42.8005Z" fill="#1A1A1A"/>
<path d="M49.2122 42.8005H45.697V46.3157H49.2122V42.8005Z" fill="#1A1A1A"/>
<path d="M56.2424 42.8005H52.7273V46.3157H56.2424V42.8005Z" fill="#1A1A1A"/>
<path d="M63.2727 42.8005H59.7576V46.3157H63.2727V42.8005Z" fill="#1A1A1A"/>
<path d="M73.8181 42.8005H70.303V46.3157H73.8181V42.8005Z" fill="#1A1A1A"/>
<path d="M77.3333 42.8005H73.8181V46.3157H77.3333V42.8005Z" fill="#1A1A1A"/>
<path d="M80.8484 42.8005H77.3333V46.3157H80.8484V42.8005Z" fill="#1A1A1A"/>
<path d="M91.3941 42.8005H87.8789V46.3157H91.3941V42.8005Z" fill="#1A1A1A"/>
<path d="M98.4243 42.8005H94.9092V46.3157H98.4243V42.8005Z" fill="#1A1A1A"/>
<path d="M7.03029 46.3157H3.51514V49.8308H7.03029V46.3157Z" fill="#1A1A1A"/>
<path d="M10.5454 46.3157H7.03027V49.8308H10.5454V46.3157Z" fill="#1A1A1A"/>
<path d="M21.0908 46.3157H17.5757V49.8308H21.0908V46.3157Z" fill="#1A1A1A"/>
<path d="M35.1516 46.3157H31.6365V49.8308H35.1516V46.3157Z" fill="#1A1A1A"/>
<path d="M42.1819 46.3157H38.6667V49.8308H42.1819V46.3157Z" fill="#1A1A1A"/>
<path d="M45.697 46.3157H42.1819V49.8308H45.697V46.3157Z" fill="#1A1A1A"/>
<path d="M52.7273 46.3157H49.2122V49.8308H52.7273V46.3157Z" fill="#1A1A1A"/>
<path d="M63.2727 46.3157H59.7576V49.8308H63.2727V46.3157Z" fill="#1A1A1A"/>
<path d="M66.7879 46.3157H63.2727V49.8308H66.7879V46.3157Z" fill="#1A1A1A"/>
<path d="M70.303 46.3157H66.7878V49.8308H70.303V46.3157Z" fill="#1A1A1A"/>
<path d="M84.3635 46.3157H80.8484V49.8308H84.3635V46.3157Z" fill="#1A1A1A"/>
<path d="M94.9092 46.3157H91.394V49.8308H94.9092V46.3157Z" fill="#1A1A1A"/>
<path d="M101.939 46.3157H98.4243V49.8308H101.939V46.3157Z" fill="#1A1A1A"/>
<path d="M105.455 46.3157H101.939V49.8308H105.455V46.3157Z" fill="#1A1A1A"/>
<path d="M116 46.3157H112.485V49.8308H116V46.3157Z" fill="#1A1A1A"/>
<path d="M3.51515 49.8308H0V53.346H3.51515V49.8308Z" fill="#1A1A1A"/>
<path d="M7.03029 49.8308H3.51514V53.346H7.03029V49.8308Z" fill="#1A1A1A"/>
<path d="M17.5757 49.8308H14.0605V53.346H17.5757V49.8308Z" fill="#1A1A1A"/>
<path d="M21.0908 49.8308H17.5757V53.346H21.0908V49.8308Z" fill="#1A1A1A"/>
<path d="M31.6362 49.8308H28.1211V53.346H31.6362V49.8308Z" fill="#1A1A1A"/>
<path d="M35.1516 49.8308H31.6365V53.346H35.1516V49.8308Z" fill="#1A1A1A"/>
<path d="M42.1819 49.8308H38.6667V53.346H42.1819V49.8308Z" fill="#1A1A1A"/>
<path d="M49.2122 49.8308H45.697V53.346H49.2122V49.8308Z" fill="#1A1A1A"/>
<path d="M52.7273 49.8308H49.2122V53.346H52.7273V49.8308Z" fill="#1A1A1A"/>
<path d="M80.8484 49.8308H77.3333V53.346H80.8484V49.8308Z" fill="#1A1A1A"/>
<path d="M91.3941 49.8308H87.8789V53.346H91.3941V49.8308Z" fill="#1A1A1A"/>
<path d="M98.4243 49.8308H94.9092V53.346H98.4243V49.8308Z" fill="#1A1A1A"/>
<path d="M101.939 49.8308H98.4243V53.346H101.939V49.8308Z" fill="#1A1A1A"/>
<path d="M112.485 49.8308H108.97V53.346H112.485V49.8308Z" fill="#1A1A1A"/>
<path d="M3.51515 53.3459H0V56.8611H3.51515V53.3459Z" fill="#1A1A1A"/>
<path d="M10.5454 53.3459H7.03027V56.8611H10.5454V53.3459Z" fill="#1A1A1A"/>
<path d="M14.0606 53.3459H10.5454V56.8611H14.0606V53.3459Z" fill="#1A1A1A"/>
<path d="M28.1211 53.3459H24.606V56.8611H28.1211V53.3459Z" fill="#1A1A1A"/>
<path d="M35.1516 53.3459H31.6365V56.8611H35.1516V53.3459Z" fill="#1A1A1A"/>
<path d="M38.6668 53.3459H35.1516V56.8611H38.6668V53.3459Z" fill="#1A1A1A"/>
<path d="M42.1819 53.3459H38.6667V56.8611H42.1819V53.3459Z" fill="#1A1A1A"/>
<path d="M49.2122 53.3459H45.697V56.8611H49.2122V53.3459Z" fill="#1A1A1A"/>
<path d="M52.7273 53.3459H49.2122V56.8611H52.7273V53.3459Z" fill="#1A1A1A"/>
<path d="M59.7576 53.3459H56.2424V56.8611H59.7576V53.3459Z" fill="#1A1A1A"/>
<path d="M66.7879 53.3459H63.2727V56.8611H66.7879V53.3459Z" fill="#1A1A1A"/>
<path d="M70.303 53.3459H66.7878V56.8611H70.303V53.3459Z" fill="#1A1A1A"/>
<path d="M73.8181 53.3459H70.303V56.8611H73.8181V53.3459Z" fill="#1A1A1A"/>
<path d="M77.3333 53.3459H73.8181V56.8611H77.3333V53.3459Z" fill="#1A1A1A"/>
<path d="M80.8484 53.3459H77.3333V56.8611H80.8484V53.3459Z" fill="#1A1A1A"/>
<path d="M101.939 53.3459H98.4243V56.8611H101.939V53.3459Z" fill="#1A1A1A"/>
<path d="M105.455 53.3459H101.939V56.8611H105.455V53.3459Z" fill="#1A1A1A"/>
<path d="M116 53.3459H112.485V56.8611H116V53.3459Z" fill="#1A1A1A"/>
<path d="M7.03029 56.8611H3.51514V60.3762H7.03029V56.8611Z" fill="#1A1A1A"/>
<path d="M14.0606 56.8611H10.5454V60.3762H14.0606V56.8611Z" fill="#1A1A1A"/>
<path d="M17.5757 56.8611H14.0605V60.3762H17.5757V56.8611Z" fill="#1A1A1A"/>
<path d="M21.0908 56.8611H17.5757V60.3762H21.0908V56.8611Z" fill="#1A1A1A"/>
<path d="M35.1516 56.8611H31.6365V60.3762H35.1516V56.8611Z" fill="#1A1A1A"/>
<path d="M42.1819 56.8611H38.6667V60.3762H42.1819V56.8611Z" fill="#1A1A1A"/>
<path d="M45.697 56.8611H42.1819V60.3762H45.697V56.8611Z" fill="#1A1A1A"/>
<path d="M49.2122 56.8611H45.697V60.3762H49.2122V56.8611Z" fill="#1A1A1A"/>
<path d="M52.7273 56.8611H49.2122V60.3762H52.7273V56.8611Z" fill="#1A1A1A"/>
<path d="M59.7576 56.8611H56.2424V60.3762H59.7576V56.8611Z" fill="#1A1A1A"/>
<path d="M63.2727 56.8611H59.7576V60.3762H63.2727V56.8611Z" fill="#1A1A1A"/>
<path d="M66.7879 56.8611H63.2727V60.3762H66.7879V56.8611Z" fill="#1A1A1A"/>
<path d="M70.303 56.8611H66.7878V60.3762H70.303V56.8611Z" fill="#1A1A1A"/>
<path d="M108.97 56.8611H105.455V60.3762H108.97V56.8611Z" fill="#1A1A1A"/>
<path d="M116 56.8611H112.485V60.3762H116V56.8611Z" fill="#1A1A1A"/>
<path d="M3.51515 60.3762H0V63.8914H3.51515V60.3762Z" fill="#1A1A1A"/>
<path d="M7.03029 60.3762H3.51514V63.8914H7.03029V60.3762Z" fill="#1A1A1A"/>
<path d="M17.5757 60.3762H14.0605V63.8914H17.5757V60.3762Z" fill="#1A1A1A"/>
<path d="M21.0908 60.3762H17.5757V63.8914H21.0908V60.3762Z" fill="#1A1A1A"/>
<path d="M35.1516 60.3762H31.6365V63.8914H35.1516V60.3762Z" fill="#1A1A1A"/>
<path d="M38.6668 60.3762H35.1516V63.8914H38.6668V60.3762Z" fill="#1A1A1A"/>
<path d="M45.697 60.3762H42.1819V63.8914H45.697V60.3762Z" fill="#1A1A1A"/>
<path d="M49.2122 60.3762H45.697V63.8914H49.2122V60.3762Z" fill="#1A1A1A"/>
<path d="M59.7576 60.3762H56.2424V63.8914H59.7576V60.3762Z" fill="#1A1A1A"/>
<path d="M63.2727 60.3762H59.7576V63.8914H63.2727V60.3762Z" fill="#1A1A1A"/>
<path d="M70.303 60.3762H66.7878V63.8914H70.303V60.3762Z" fill="#1A1A1A"/>
<path d="M73.8181 60.3762H70.303V63.8914H73.8181V60.3762Z" fill="#1A1A1A"/>
<path d="M84.3635 60.3762H80.8484V63.8914H84.3635V60.3762Z" fill="#1A1A1A"/>
<path d="M87.8787 60.3762H84.3635V63.8914H87.8787V60.3762Z" fill="#1A1A1A"/>
<path d="M91.3941 60.3762H87.8789V63.8914H91.3941V60.3762Z" fill="#1A1A1A"/>
<path d="M94.9092 60.3762H91.394V63.8914H94.9092V60.3762Z" fill="#1A1A1A"/>
<path d="M3.51515 63.8914H0V67.4065H3.51515V63.8914Z" fill="#1A1A1A"/>
<path d="M7.03029 63.8914H3.51514V67.4065H7.03029V63.8914Z" fill="#1A1A1A"/>
<path d="M10.5454 63.8914H7.03027V67.4065H10.5454V63.8914Z" fill="#1A1A1A"/>
<path d="M14.0606 63.8914H10.5454V67.4065H14.0606V63.8914Z" fill="#1A1A1A"/>
<path d="M17.5757 63.8914H14.0605V67.4065H17.5757V63.8914Z" fill="#1A1A1A"/>
<path d="M28.1211 63.8914H24.606V67.4065H28.1211V63.8914Z" fill="#1A1A1A"/>
<path d="M31.6362 63.8914H28.1211V67.4065H31.6362V63.8914Z" fill="#1A1A1A"/>
<path d="M35.1516 63.8914H31.6365V67.4065H35.1516V63.8914Z" fill="#1A1A1A"/>
<path d="M42.1819 63.8914H38.6667V67.4065H42.1819V63.8914Z" fill="#1A1A1A"/>
<path d="M52.7273 63.8914H49.2122V67.4065H52.7273V63.8914Z" fill="#1A1A1A"/>
<path d="M70.303 63.8914H66.7878V67.4065H70.303V63.8914Z" fill="#1A1A1A"/>
<path d="M80.8484 63.8914H77.3333V67.4065H80.8484V63.8914Z" fill="#1A1A1A"/>
<path d="M101.939 63.8914H98.4243V67.4065H101.939V63.8914Z" fill="#1A1A1A"/>
<path d="M108.97 63.8914H105.455V67.4065H108.97V63.8914Z" fill="#1A1A1A"/>
<path d="M7.03029 67.4065H3.51514V70.9216H7.03029V67.4065Z" fill="#1A1A1A"/>
<path d="M17.5757 67.4065H14.0605V70.9216H17.5757V67.4065Z" fill="#1A1A1A"/>
<path d="M28.1211 67.4065H24.606V70.9216H28.1211V67.4065Z" fill="#1A1A1A"/>
<path d="M31.6362 67.4065H28.1211V70.9216H31.6362V67.4065Z" fill="#1A1A1A"/>
<path d="M38.6668 67.4065H35.1516V70.9216H38.6668V67.4065Z" fill="#1A1A1A"/>
<path d="M45.697 67.4065H42.1819V70.9216H45.697V67.4065Z" fill="#1A1A1A"/>
<path d="M56.2424 67.4065H52.7273V70.9216H56.2424V67.4065Z" fill="#1A1A1A"/>
<path d="M59.7576 67.4065H56.2424V70.9216H59.7576V67.4065Z" fill="#1A1A1A"/>
<path d="M63.2727 67.4065H59.7576V70.9216H63.2727V67.4065Z" fill="#1A1A1A"/>
<path d="M73.8181 67.4065H70.303V70.9216H73.8181V67.4065Z" fill="#1A1A1A"/>
<path d="M77.3333 67.4065H73.8181V70.9216H77.3333V67.4065Z" fill="#1A1A1A"/>
<path d="M84.3635 67.4065H80.8484V70.9216H84.3635V67.4065Z" fill="#1A1A1A"/>
<path d="M87.8787 67.4065H84.3635V70.9216H87.8787V67.4065Z" fill="#1A1A1A"/>
<path d="M91.3941 67.4065H87.8789V70.9216H91.3941V67.4065Z" fill="#1A1A1A"/>
<path d="M101.939 67.4065H98.4243V70.9216H101.939V67.4065Z" fill="#1A1A1A"/>
<path d="M105.455 67.4065H101.939V70.9216H105.455V67.4065Z" fill="#1A1A1A"/>
<path d="M108.97 67.4065H105.455V70.9216H108.97V67.4065Z" fill="#1A1A1A"/>
<path d="M112.485 67.4065H108.97V70.9216H112.485V67.4065Z" fill="#1A1A1A"/>
<path d="M3.51515 70.9216H0V74.4368H3.51515V70.9216Z" fill="#1A1A1A"/>
<path d="M14.0606 70.9216H10.5454V74.4368H14.0606V70.9216Z" fill="#1A1A1A"/>
<path d="M35.1516 70.9216H31.6365V74.4368H35.1516V70.9216Z" fill="#1A1A1A"/>
<path d="M38.6668 70.9216H35.1516V74.4368H38.6668V70.9216Z" fill="#1A1A1A"/>
<path d="M42.1819 70.9216H38.6667V74.4368H42.1819V70.9216Z" fill="#1A1A1A"/>
<path d="M45.697 70.9216H42.1819V74.4368H45.697V70.9216Z" fill="#1A1A1A"/>
<path d="M49.2122 70.9216H45.697V74.4368H49.2122V70.9216Z" fill="#1A1A1A"/>
<path d="M73.8181 70.9216H70.303V74.4368H73.8181V70.9216Z" fill="#1A1A1A"/>
<path d="M80.8484 70.9216H77.3333V74.4368H80.8484V70.9216Z" fill="#1A1A1A"/>
<path d="M87.8787 70.9216H84.3635V74.4368H87.8787V70.9216Z" fill="#1A1A1A"/>
<path d="M98.4243 70.9216H94.9092V74.4368H98.4243V70.9216Z" fill="#1A1A1A"/>
<path d="M101.939 70.9216H98.4243V74.4368H101.939V70.9216Z" fill="#1A1A1A"/>
<path d="M105.455 70.9216H101.939V74.4368H105.455V70.9216Z" fill="#1A1A1A"/>
<path d="M3.51515 74.4368H0V77.9519H3.51515V74.4368Z" fill="#1A1A1A"/>
<path d="M28.1211 74.4368H24.606V77.9519H28.1211V74.4368Z" fill="#1A1A1A"/>
<path d="M38.6668 74.4368H35.1516V77.9519H38.6668V74.4368Z" fill="#1A1A1A"/>
<path d="M42.1819 74.4368H38.6667V77.9519H42.1819V74.4368Z" fill="#1A1A1A"/>
<path d="M45.697 74.4368H42.1819V77.9519H45.697V74.4368Z" fill="#1A1A1A"/>
<path d="M49.2122 74.4368H45.697V77.9519H49.2122V74.4368Z" fill="#1A1A1A"/>
<path d="M56.2424 74.4368H52.7273V77.9519H56.2424V74.4368Z" fill="#1A1A1A"/>
<path d="M59.7576 74.4368H56.2424V77.9519H59.7576V74.4368Z" fill="#1A1A1A"/>
<path d="M63.2727 74.4368H59.7576V77.9519H63.2727V74.4368Z" fill="#1A1A1A"/>
<path d="M66.7879 74.4368H63.2727V77.9519H66.7879V74.4368Z" fill="#1A1A1A"/>
<path d="M70.303 74.4368H66.7878V77.9519H70.303V74.4368Z" fill="#1A1A1A"/>
<path d="M77.3333 74.4368H73.8181V77.9519H77.3333V74.4368Z" fill="#1A1A1A"/>
<path d="M80.8484 74.4368H77.3333V77.9519H80.8484V74.4368Z" fill="#1A1A1A"/>
<path d="M91.3941 74.4368H87.8789V77.9519H91.3941V74.4368Z" fill="#1A1A1A"/>
<path d="M108.97 74.4368H105.455V77.9519H108.97V74.4368Z" fill="#1A1A1A"/>
<path d="M112.485 74.4368H108.97V77.9519H112.485V74.4368Z" fill="#1A1A1A"/>
<path d="M116 74.4368H112.485V77.9519H116V74.4368Z" fill="#1A1A1A"/>
<path d="M3.51515 77.9519H0V81.4671H3.51515V77.9519Z" fill="#1A1A1A"/>
<path d="M10.5454 77.9519H7.03027V81.4671H10.5454V77.9519Z" fill="#1A1A1A"/>
<path d="M14.0606 77.9519H10.5454V81.4671H14.0606V77.9519Z" fill="#1A1A1A"/>
<path d="M17.5757 77.9519H14.0605V81.4671H17.5757V77.9519Z" fill="#1A1A1A"/>
<path d="M31.6362 77.9519H28.1211V81.4671H31.6362V77.9519Z" fill="#1A1A1A"/>
<path d="M35.1516 77.9519H31.6365V81.4671H35.1516V77.9519Z" fill="#1A1A1A"/>
<path d="M38.6668 77.9519H35.1516V81.4671H38.6668V77.9519Z" fill="#1A1A1A"/>
<path d="M45.697 77.9519H42.1819V81.4671H45.697V77.9519Z" fill="#1A1A1A"/>
<path d="M84.3635 77.9519H80.8484V81.4671H84.3635V77.9519Z" fill="#1A1A1A"/>
<path d="M87.8787 77.9519H84.3635V81.4671H87.8787V77.9519Z" fill="#1A1A1A"/>
<path d="M101.939 77.9519H98.4243V81.4671H101.939V77.9519Z" fill="#1A1A1A"/>
<path d="M112.485 77.9519H108.97V81.4671H112.485V77.9519Z" fill="#1A1A1A"/>
<path d="M3.51515 81.467H0V84.9822H3.51515V81.467Z" fill="#1A1A1A"/>
<path d="M10.5454 81.467H7.03027V84.9822H10.5454V81.467Z" fill="#1A1A1A"/>
<path d="M17.5757 81.467H14.0605V84.9822H17.5757V81.467Z" fill="#1A1A1A"/>
<path d="M35.1516 81.467H31.6365V84.9822H35.1516V81.467Z" fill="#1A1A1A"/>
<path d="M45.697 81.467H42.1819V84.9822H45.697V81.467Z" fill="#1A1A1A"/>
<path d="M56.2424 81.467H52.7273V84.9822H56.2424V81.467Z" fill="#1A1A1A"/>
<path d="M63.2727 81.467H59.7576V84.9822H63.2727V81.467Z" fill="#1A1A1A"/>
<path d="M66.7879 81.467H63.2727V84.9822H66.7879V81.467Z" fill="#1A1A1A"/>
<path d="M77.3333 81.467H73.8181V84.9822H77.3333V81.467Z" fill="#1A1A1A"/>
<path d="M84.3635 81.467H80.8484V84.9822H84.3635V81.467Z" fill="#1A1A1A"/>
<path d="M98.4243 81.467H94.9092V84.9822H98.4243V81.467Z" fill="#1A1A1A"/>
<path d="M105.455 81.467H101.939V84.9822H105.455V81.467Z" fill="#1A1A1A"/>
<path d="M108.97 81.467H105.455V84.9822H108.97V81.467Z" fill="#1A1A1A"/>
<path d="M3.51515 84.9822H0V88.4973H3.51515V84.9822Z" fill="#1A1A1A"/>
<path d="M10.5454 84.9822H7.03027V88.4973H10.5454V84.9822Z" fill="#1A1A1A"/>
<path d="M17.5757 84.9822H14.0605V88.4973H17.5757V84.9822Z" fill="#1A1A1A"/>
<path d="M21.0908 84.9822H17.5757V88.4973H21.0908V84.9822Z" fill="#1A1A1A"/>
<path d="M31.6362 84.9822H28.1211V88.4973H31.6362V84.9822Z" fill="#1A1A1A"/>
<path d="M35.1516 84.9822H31.6365V88.4973H35.1516V84.9822Z" fill="#1A1A1A"/>
<path d="M42.1819 84.9822H38.6667V88.4973H42.1819V84.9822Z" fill="#1A1A1A"/>
<path d="M49.2122 84.9822H45.697V88.4973H49.2122V84.9822Z" fill="#1A1A1A"/>
<path d="M52.7273 84.9822H49.2122V88.4973H52.7273V84.9822Z" fill="#1A1A1A"/>
<path d="M63.2727 84.9822H59.7576V88.4973H63.2727V84.9822Z" fill="#1A1A1A"/>
<path d="M66.7879 84.9822H63.2727V88.4973H66.7879V84.9822Z" fill="#1A1A1A"/>
<path d="M73.8181 84.9822H70.303V88.4973H73.8181V84.9822Z" fill="#1A1A1A"/>
<path d="M77.3333 84.9822H73.8181V88.4973H77.3333V84.9822Z" fill="#1A1A1A"/>
<path d="M80.8484 84.9822H77.3333V88.4973H80.8484V84.9822Z" fill="#1A1A1A"/>
<path d="M84.3635 84.9822H80.8484V88.4973H84.3635V84.9822Z" fill="#1A1A1A"/>
<path d="M31.6362 88.4976H28.1211V92.0127H31.6362V88.4976Z" fill="#1A1A1A"/>
<path d="M45.697 88.4976H42.1819V92.0127H45.697V88.4976Z" fill="#1A1A1A"/>
<path d="M59.7576 88.4976H56.2424V92.0127H59.7576V88.4976Z" fill="#1A1A1A"/>
<path d="M66.7879 88.4976H63.2727V92.0127H66.7879V88.4976Z" fill="#1A1A1A"/>
<path d="M77.3333 88.4976H73.8181V92.0127H77.3333V88.4976Z" fill="#1A1A1A"/>
<path d="M80.8484 88.4976H77.3333V92.0127H80.8484V88.4976Z" fill="#1A1A1A"/>
<path d="M84.3635 88.4976H80.8484V92.0127H84.3635V88.4976Z" fill="#1A1A1A"/>
<path d="M105.455 88.4976H101.939V92.0127H105.455V88.4976Z" fill="#1A1A1A"/>
<path d="M112.485 88.4976H108.97V92.0127H112.485V88.4976Z" fill="#1A1A1A"/>
<path d="M116 88.4976H112.485V92.0127H116V88.4976Z" fill="#1A1A1A"/>
<path d="M38.6668 92.0127H35.1516V95.5278H38.6668V92.0127Z" fill="#1A1A1A"/>
<path d="M42.1819 92.0127H38.6667V95.5278H42.1819V92.0127Z" fill="#1A1A1A"/>
<path d="M49.2122 92.0127H45.697V95.5278H49.2122V92.0127Z" fill="#1A1A1A"/>
<path d="M52.7273 92.0127H49.2122V95.5278H52.7273V92.0127Z" fill="#1A1A1A"/>
<path d="M59.7576 92.0127H56.2424V95.5278H59.7576V92.0127Z" fill="#1A1A1A"/>
<path d="M63.2727 92.0127H59.7576V95.5278H63.2727V92.0127Z" fill="#1A1A1A"/>
<path d="M66.7879 92.0127H63.2727V95.5278H66.7879V92.0127Z" fill="#1A1A1A"/>
<path d="M73.8181 92.0127H70.303V95.5278H73.8181V92.0127Z" fill="#1A1A1A"/>
<path d="M77.3333 92.0127H73.8181V95.5278H77.3333V92.0127Z" fill="#1A1A1A"/>
<path d="M84.3635 92.0127H80.8484V95.5278H84.3635V92.0127Z" fill="#1A1A1A"/>
<path d="M105.455 92.0127H101.939V95.5278H105.455V92.0127Z" fill="#1A1A1A"/>
<path d="M112.485 92.0127H108.97V95.5278H112.485V92.0127Z" fill="#1A1A1A"/>
<path d="M38.6668 95.5278H35.1516V99.043H38.6668V95.5278Z" fill="#1A1A1A"/>
<path d="M45.697 95.5278H42.1819V99.043H45.697V95.5278Z" fill="#1A1A1A"/>
<path d="M59.7576 95.5278H56.2424V99.043H59.7576V95.5278Z" fill="#1A1A1A"/>
<path d="M63.2727 95.5278H59.7576V99.043H63.2727V95.5278Z" fill="#1A1A1A"/>
<path d="M66.7879 95.5278H63.2727V99.043H66.7879V95.5278Z" fill="#1A1A1A"/>
<path d="M77.3333 95.5278H73.8181V99.043H77.3333V95.5278Z" fill="#1A1A1A"/>
<path d="M80.8484 95.5278H77.3333V99.043H80.8484V95.5278Z" fill="#1A1A1A"/>
<path d="M108.97 95.5278H105.455V99.043H108.97V95.5278Z" fill="#1A1A1A"/>
<path d="M112.485 95.5278H108.97V99.043H112.485V95.5278Z" fill="#1A1A1A"/>
<path d="M116 95.5278H112.485V99.043H116V95.5278Z" fill="#1A1A1A"/>
<path d="M31.6362 99.043H28.1211V102.558H31.6362V99.043Z" fill="#1A1A1A"/>
<path d="M35.1516 99.043H31.6365V102.558H35.1516V99.043Z" fill="#1A1A1A"/>
<path d="M38.6668 99.043H35.1516V102.558H38.6668V99.043Z" fill="#1A1A1A"/>
<path d="M49.2122 99.043H45.697V102.558H49.2122V99.043Z" fill="#1A1A1A"/>
<path d="M59.7576 99.043H56.2424V102.558H59.7576V99.043Z" fill="#1A1A1A"/>
<path d="M63.2727 99.043H59.7576V102.558H63.2727V99.043Z" fill="#1A1A1A"/>
<path d="M73.8181 99.043H70.303V102.558H73.8181V99.043Z" fill="#1A1A1A"/>
<path d="M77.3333 99.043H73.8181V102.558H77.3333V99.043Z" fill="#1A1A1A"/>
<path d="M112.485 99.043H108.97V102.558H112.485V99.043Z" fill="#1A1A1A"/>
<path d="M116 99.043H112.485V102.558H116V99.043Z" fill="#1A1A1A"/>
<path d="M31.6362 102.558H28.1211V106.073H31.6362V102.558Z" fill="#1A1A1A"/>
<path d="M35.1516 102.558H31.6365V106.073H35.1516V102.558Z" fill="#1A1A1A"/>
<path d="M38.6668 102.558H35.1516V106.073H38.6668V102.558Z" fill="#1A1A1A"/>
<path d="M45.697 102.558H42.1819V106.073H45.697V102.558Z" fill="#1A1A1A"/>
<path d="M52.7273 102.558H49.2122V106.073H52.7273V102.558Z" fill="#1A1A1A"/>
<path d="M63.2727 102.558H59.7576V106.073H63.2727V102.558Z" fill="#1A1A1A"/>
<path d="M70.303 102.558H66.7878V106.073H70.303V102.558Z" fill="#1A1A1A"/>
<path d="M80.8484 102.558H77.3333V106.073H80.8484V102.558Z" fill="#1A1A1A"/>
<path d="M84.3635 102.558H80.8484V106.073H84.3635V102.558Z" fill="#1A1A1A"/>
<path d="M87.8787 102.558H84.3635V106.073H87.8787V102.558Z" fill="#1A1A1A"/>
<path d="M91.3941 102.558H87.8789V106.073H91.3941V102.558Z" fill="#1A1A1A"/>
<path d="M101.939 102.558H98.4243V106.073H101.939V102.558Z" fill="#1A1A1A"/>
<path d="M108.97 102.558H105.455V106.073H108.97V102.558Z" fill="#1A1A1A"/>
<path d="M112.485 102.558H108.97V106.073H112.485V102.558Z" fill="#1A1A1A"/>
<path d="M31.6362 106.073H28.1211V109.588H31.6362V106.073Z" fill="#1A1A1A"/>
<path d="M42.1819 106.073H38.6667V109.588H42.1819V106.073Z" fill="#1A1A1A"/>
<path d="M56.2424 106.073H52.7273V109.588H56.2424V106.073Z" fill="#1A1A1A"/>
<path d="M66.7879 106.073H63.2727V109.588H66.7879V106.073Z" fill="#1A1A1A"/>
<path d="M70.303 106.073H66.7878V109.588H70.303V106.073Z" fill="#1A1A1A"/>
<path d="M80.8484 106.073H77.3333V109.588H80.8484V106.073Z" fill="#1A1A1A"/>
<path d="M84.3635 106.073H80.8484V109.588H84.3635V106.073Z" fill="#1A1A1A"/>
<path d="M87.8787 106.073H84.3635V109.588H87.8787V106.073Z" fill="#1A1A1A"/>
<path d="M91.3941 106.073H87.8789V109.588H91.3941V106.073Z" fill="#1A1A1A"/>
<path d="M94.9092 106.073H91.394V109.588H94.9092V106.073Z" fill="#1A1A1A"/>
<path d="M105.455 106.073H101.939V109.588H105.455V106.073Z" fill="#1A1A1A"/>
<path d="M108.97 106.073H105.455V109.588H108.97V106.073Z" fill="#1A1A1A"/>
<path d="M35.1516 109.588H31.6365V113.104H35.1516V109.588Z" fill="#1A1A1A"/>
<path d="M38.6668 109.588H35.1516V113.104H38.6668V109.588Z" fill="#1A1A1A"/>
<path d="M42.1819 109.588H38.6667V113.104H42.1819V109.588Z" fill="#1A1A1A"/>
<path d="M49.2122 109.588H45.697V113.104H49.2122V109.588Z" fill="#1A1A1A"/>
<path d="M52.7273 109.588H49.2122V113.104H52.7273V109.588Z" fill="#1A1A1A"/>
<path d="M63.2727 109.588H59.7576V113.104H63.2727V109.588Z" fill="#1A1A1A"/>
<path d="M73.8181 109.588H70.303V113.104H73.8181V109.588Z" fill="#1A1A1A"/>
<path d="M91.3941 109.588H87.8789V113.104H91.3941V109.588Z" fill="#1A1A1A"/>
<path d="M98.4243 109.588H94.9092V113.104H98.4243V109.588Z" fill="#1A1A1A"/>
<path d="M108.97 109.588H105.455V113.104H108.97V109.588Z" fill="#1A1A1A"/>
<path d="M35.1516 113.104H31.6365V116.619H35.1516V113.104Z" fill="#1A1A1A"/>
<path d="M38.6668 113.104H35.1516V116.619H38.6668V113.104Z" fill="#1A1A1A"/>
<path d="M42.1819 113.104H38.6667V116.619H42.1819V113.104Z" fill="#1A1A1A"/>
<path d="M45.697 113.104H42.1819V116.619H45.697V113.104Z" fill="#1A1A1A"/>
<path d="M49.2122 113.104H45.697V116.619H49.2122V113.104Z" fill="#1A1A1A"/>
<path d="M56.2424 113.104H52.7273V116.619H56.2424V113.104Z" fill="#1A1A1A"/>
<path d="M70.303 113.104H66.7878V116.619H70.303V113.104Z" fill="#1A1A1A"/>
<path d="M77.3333 113.104H73.8181V116.619H77.3333V113.104Z" fill="#1A1A1A"/>
<path d="M80.8484 113.104H77.3333V116.619H80.8484V113.104Z" fill="#1A1A1A"/>
<path d="M84.3635 113.104H80.8484V116.619H84.3635V113.104Z" fill="#1A1A1A"/>
<path d="M87.8787 113.104H84.3635V116.619H87.8787V113.104Z" fill="#1A1A1A"/>
<path d="M105.455 113.104H101.939V116.619H105.455V113.104Z" fill="#1A1A1A"/>
<path d="M108.97 113.104H105.455V116.619H108.97V113.104Z" fill="#1A1A1A"/>
<path d="M112.485 113.104H108.97V116.619H112.485V113.104Z" fill="#1A1A1A"/>
<path d="M6.15152 0.618652H18.4545C20.086 0.618652 21.6507 1.26676 22.8043 2.42039C23.958 3.57402 24.6061 5.13868 24.6061 6.77017V19.0732C24.6061 20.7047 23.958 22.2693 22.8043 23.423C21.6507 24.5766 20.086 25.2247 18.4545 25.2247H6.15152C4.52003 25.2247 2.95537 24.5766 1.80174 23.423C0.648104 22.2693 0 20.7047 0 19.0732L0 6.77017C0 5.13868 0.648104 3.57402 1.80174 2.42039C2.95537 1.26676 4.52003 0.618652 6.15152 0.618652ZM6.15152 4.1338C5.45231 4.1338 4.78174 4.41156 4.28732 4.90598C3.79291 5.40039 3.51515 6.07096 3.51515 6.77017V19.0732C3.51515 19.7724 3.79291 20.443 4.28732 20.9374C4.78174 21.4318 5.45231 21.7096 6.15152 21.7096H18.4545C19.1538 21.7096 19.8243 21.4318 20.3187 20.9374C20.8131 20.443 21.0909 19.7724 21.0909 19.0732V6.77017C21.0909 6.07096 20.8131 5.40039 20.3187 4.90598C19.8243 4.41156 19.1538 4.1338 18.4545 4.1338H6.15152Z" fill="#1A1A1A"/>
<path d="M97.5456 0.618652H109.849C111.48 0.618652 113.045 1.26676 114.198 2.42039C115.352 3.57402 116 5.13868 116 6.77017V19.0732C116 20.7047 115.352 22.2693 114.198 23.423C113.045 24.5766 111.48 25.2247 109.849 25.2247H97.5456C95.9141 25.2247 94.3494 24.5766 93.1958 23.423C92.0421 22.2693 91.394 20.7047 91.394 19.0732V6.77017C91.394 5.13868 92.0421 3.57402 93.1958 2.42039C94.3494 1.26676 95.9141 0.618652 97.5456 0.618652ZM97.5456 4.1338C96.8464 4.1338 96.1758 4.41156 95.6814 4.90598C95.187 5.40039 94.9092 6.07096 94.9092 6.77017V19.0732C94.9092 19.7724 95.187 20.443 95.6814 20.9374C96.1758 21.4318 96.8464 21.7096 97.5456 21.7096H109.849C110.548 21.7096 111.218 21.4318 111.713 20.9374C112.207 20.443 112.485 19.7724 112.485 19.0732V6.77017C112.485 6.07096 112.207 5.40039 111.713 4.90598C111.218 4.41156 110.548 4.1338 109.849 4.1338H97.5456Z" fill="#1A1A1A"/>
<path d="M6.15152 92.0127H18.4545C20.086 92.0127 21.6507 92.6608 22.8043 93.8144C23.958 94.9681 24.6061 96.5327 24.6061 98.1642V110.467C24.6061 112.099 23.958 113.663 22.8043 114.817C21.6507 115.971 20.086 116.619 18.4545 116.619H6.15152C4.52003 116.619 2.95537 115.971 1.80174 114.817C0.648104 113.663 0 112.099 0 110.467L0 98.1642C0 96.5327 0.648104 94.9681 1.80174 93.8144C2.95537 92.6608 4.52003 92.0127 6.15152 92.0127ZM6.15152 95.5278C5.45231 95.5278 4.78174 95.8056 4.28732 96.3C3.79291 96.7944 3.51515 97.465 3.51515 98.1642V110.467C3.51515 111.166 3.79291 111.837 4.28732 112.331C4.78174 112.826 5.45231 113.104 6.15152 113.104H18.4545C19.1538 113.104 19.8243 112.826 20.3187 112.331C20.8131 111.837 21.0909 111.166 21.0909 110.467V98.1642C21.0909 97.465 20.8131 96.7944 20.3187 96.3C19.8243 95.8056 19.1538 95.5278 18.4545 95.5278H6.15152Z" fill="#1A1A1A"/>
<path d="M14.9394 7.64893H9.66664C8.21061 7.64893 7.03027 8.82927 7.03027 10.2853V15.558C7.03027 17.014 8.21061 18.1944 9.66664 18.1944H14.9394C16.3954 18.1944 17.5757 17.014 17.5757 15.558V10.2853C17.5757 8.82927 16.3954 7.64893 14.9394 7.64893Z" fill="#1A1A1A"/>
<path d="M106.333 7.64893H101.061C99.6047 7.64893 98.4243 8.82927 98.4243 10.2853V15.558C98.4243 17.014 99.6047 18.1944 101.061 18.1944H106.333C107.789 18.1944 108.97 17.014 108.97 15.558V10.2853C108.97 8.82927 107.789 7.64893 106.333 7.64893Z" fill="#1A1A1A"/>
<path d="M14.9394 99.043H9.66664C8.21061 99.043 7.03027 100.223 7.03027 101.679V106.952C7.03027 108.408 8.21061 109.588 9.66664 109.588H14.9394C16.3954 109.588 17.5757 108.408 17.5757 106.952V101.679C17.5757 100.223 16.3954 99.043 14.9394 99.043Z" fill="#1A1A1A"/>
<path d="M31.6362 21.7095H28.1211V25.2246H31.6362V21.7095Z" fill="#1A1A1A"/>
<path d="M24.606 28.7397H21.0908V32.2549H24.606V28.7397Z" fill="#1A1A1A"/>
<path d="M38.6668 21.7095H35.1516V25.2246H38.6668V21.7095Z" fill="#1A1A1A"/>
<path d="M24.606 35.7703H21.0908V39.2854H24.606V35.7703Z" fill="#1A1A1A"/>
<path d="M45.697 21.7095H42.1819V25.2246H45.697V21.7095Z" fill="#1A1A1A"/>
<path d="M24.606 42.8005H21.0908V46.3157H24.606V42.8005Z" fill="#1A1A1A"/>
<path d="M52.7273 21.7095H49.2122V25.2246H52.7273V21.7095Z" fill="#1A1A1A"/>
<path d="M24.606 49.8308H21.0908V53.346H24.606V49.8308Z" fill="#1A1A1A"/>
<path d="M59.7576 21.7095H56.2424V25.2246H59.7576V21.7095Z" fill="#1A1A1A"/>
<path d="M24.606 56.8611H21.0908V60.3762H24.606V56.8611Z" fill="#1A1A1A"/>
<path d="M66.7879 21.7095H63.2727V25.2246H66.7879V21.7095Z" fill="#1A1A1A"/>
<path d="M24.606 63.8914H21.0908V67.4065H24.606V63.8914Z" fill="#1A1A1A"/>
<path d="M73.8181 21.7095H70.303V25.2246H73.8181V21.7095Z" fill="#1A1A1A"/>
<path d="M24.606 70.9216H21.0908V74.4368H24.606V70.9216Z" fill="#1A1A1A"/>
<path d="M80.8484 21.7095H77.3333V25.2246H80.8484V21.7095Z" fill="#1A1A1A"/>
<path d="M24.606 77.9519H21.0908V81.4671H24.606V77.9519Z" fill="#1A1A1A"/>
<path d="M87.8787 21.7095H84.3635V25.2246H87.8787V21.7095Z" fill="#1A1A1A"/>
<path d="M24.606 84.9822H21.0908V88.4973H24.606V84.9822Z" fill="#1A1A1A"/>
<path d="M87.8787 84.9822H84.3635V88.4973H87.8787V84.9822Z" fill="#1A1A1A"/>
<path d="M87.8787 88.4976H84.3635V92.0127H87.8787V88.4976Z" fill="#1A1A1A"/>
<path d="M87.8787 92.0127H84.3635V95.5278H87.8787V92.0127Z" fill="#1A1A1A"/>
<path d="M87.8787 95.5278H84.3635V99.043H87.8787V95.5278Z" fill="#1A1A1A"/>
<path d="M101.939 88.4976H98.4243V92.0127H101.939V88.4976Z" fill="#1A1A1A"/>
<path d="M101.939 92.0127H98.4243V95.5278H101.939V92.0127Z" fill="#1A1A1A"/>
<path d="M101.939 95.5278H98.4243V99.043H101.939V95.5278Z" fill="#1A1A1A"/>
<path d="M101.939 99.043H98.4243V102.558H101.939V99.043Z" fill="#1A1A1A"/>
<path d="M91.3941 84.9822H87.8789V88.4973H91.3941V84.9822Z" fill="#1A1A1A"/>
<path d="M94.9092 84.9822H91.394V88.4973H94.9092V84.9822Z" fill="#1A1A1A"/>
<path d="M98.4243 84.9822H94.9092V88.4973H98.4243V84.9822Z" fill="#1A1A1A"/>
<path d="M101.939 84.9822H98.4243V88.4973H101.939V84.9822Z" fill="#1A1A1A"/>
<path d="M87.8787 99.043H84.3635V102.558H87.8787V99.043Z" fill="#1A1A1A"/>
<path d="M91.3941 99.043H87.8789V102.558H91.3941V99.043Z" fill="#1A1A1A"/>
<path d="M94.9092 99.043H91.394V102.558H94.9092V99.043Z" fill="#1A1A1A"/>
<path d="M98.4243 99.043H94.9092V102.558H98.4243V99.043Z" fill="#1A1A1A"/>
<path d="M94.9092 92.0127H91.394V95.5278H94.9092V92.0127Z" fill="#1A1A1A"/>
</svg>
